<svg width="16" height="71" viewBox="0 0 16 71" fill="none" xmlns="http://www.w3.org/2000/svg">
<path fill-rule="evenodd" clip-rule="evenodd" d="M8.19087 2C8.32347 2 8.45065 2.05268 8.54442 2.14645C8.63819 2.24021 8.69087 2.36739 8.69087 2.5L8.49923 68.2926L14.0725 63.0939C14.1664 63 14.2937 62.9473 14.4265 62.9473C14.5593 62.9473 14.6866 63 14.7805 63.0939C14.8744 63.1878 14.9271 63.3151 14.9271 63.4479C14.9271 63.5807 14.8744 63.708 14.7805 63.8019L8.35323 69.8536C8.30679 69.9001 8.25161 69.9371 8.19087 69.9623C8.13012 69.9875 8.065 70.0005 7.99923 70.0005C7.93347 70.0005 7.86835 69.9875 7.8076 69.9623C7.74685 69.9371 7.69168 69.9001 7.64523 69.8536L1.68785 63.708C1.59396 63.6141 1.54122 63.4868 1.54122 63.354C1.54122 63.2212 1.59396 63.0939 1.68785 63C1.78174 62.9061 1.90907 62.8534 2.04185 62.8534C2.17462 62.8534 2.30196 62.9061 2.39585 63L7.49923 68.2926L7.69087 2.5C7.69087 2.36739 7.74355 2.24021 7.83731 2.14645C7.93108 2.05268 8.05826 2 8.19087 2Z" fill="black"/>
</svg>
