<?xml version="1.0" standalone="no"?>
<!DOCTYPE svg PUBLIC "-//W3C//DTD SVG 20010904//EN"
 "http://www.w3.org/TR/2001/REC-SVG-20010904/DTD/svg10.dtd">
<svg version="1.0" xmlns="http://www.w3.org/2000/svg"
 width="300.000000pt" height="304.000000pt" viewBox="0 0 300.000000 304.000000"
 preserveAspectRatio="xMidYMid meet">
<metadata>
Created by potrace 1.10, written by Peter Selinger 2001-2011
</metadata>
<g transform="translate(0.000000,304.000000) scale(0.050000,-0.050000)"
fill="#ffffff" stroke="none">
<path d="M0 3040 l0 -3040 3000 0 3000 0 0 3040 0 3040 -3000 0 -3000 0 0
-3040z m3653 621 c-174 -206 -703 -812 -712 -816 -8 -3 -129 111 -271 254
-241 243 -260 258 -293 228 -19 -17 -177 -197 -351 -399 l-316 -368 -256 0
c-244 0 -255 2 -230 36 14 20 282 327 595 681 l568 645 262 -261 c144 -143
267 -261 273 -261 6 0 118 126 249 280 l238 280 135 -134 c116 -115 131 -138
109 -165z m727 -671 l430 -430 -270 0 -271 0 -287 288 c-203 203 -282 296
-271 315 27 45 214 257 227 257 7 0 206 -193 442 -430z m-802 -258 l128 -129
-38 -48 c-21 -26 -186 -215 -366 -421 l-328 -373 -352 338 c-194 185 -377 363
-407 395 l-55 58 124 145 124 144 273 -272 273 -272 236 281 c130 155 242 282
249 282 7 0 69 -58 139 -128z"/>
</g>
</svg>
