<?xml version="1.0" standalone="no"?>
<!DOCTYPE svg PUBLIC "-//W3C//DTD SVG 20010904//EN"
 "http://www.w3.org/TR/2001/REC-SVG-20010904/DTD/svg10.dtd">
<svg version="1.0" xmlns="http://www.w3.org/2000/svg"
 width="300.000000pt" height="303.000000pt" viewBox="0 0 300.000000 303.000000"
 preserveAspectRatio="xMidYMid meet">
<metadata>
Created by potrace 1.10, written by Peter Selinger 2001-2011
</metadata>
<g transform="translate(0.000000,303.000000) scale(0.100000,-0.100000)"
fill="#ffffff" stroke="none">
<path d="M1375 2855 c-227 -40 -430 -143 -597 -304 -107 -101 -168 -185 -233
-316 -67 -134 -102 -255 -117 -397 l-12 -107 -40 -4 -41 -4 40 -1 41 -2 12
-109 c58 -521 446 -933 957 -1016 49 -8 109 -15 132 -15 l42 0 4 -43 4 -42 1
43 2 42 43 0 c68 0 216 27 302 55 146 48 294 132 401 228 l50 46 33 -31 c57
-54 42 -24 -18 36 l-59 59 70 86 c79 98 166 264 197 380 95 345 12 708 -226
987 l-43 51 61 58 c33 31 57 60 54 64 -4 3 -20 -9 -36 -27 l-30 -33 -52 47
c-125 113 -298 204 -477 251 -121 31 -342 40 -465 18z m401 -21 c191 -34 388
-130 532 -259 l52 -47 -21 -22 -22 -23 -86 69 c-107 87 -271 169 -401 202
-106 27 -270 44 -270 29 0 -6 44 -13 98 -16 181 -11 383 -88 538 -205 44 -34
86 -68 93 -76 10 -12 -5 -32 -93 -120 -58 -58 -109 -106 -114 -106 -5 0 -19
12 -33 26 -37 40 -156 109 -234 137 -199 71 -385 58 -585 -40 -80 -39 -109
-60 -185 -137 -69 -69 -101 -111 -132 -172 -45 -85 -77 -192 -88 -286 l-6 -58
-75 0 -74 0 0 43 c0 70 36 221 72 304 192 443 699 656 1147 482 90 -34 108
-30 26 6 -127 57 -308 83 -449 65 -443 -55 -785 -414 -808 -847 l-3 -53 -109
0 -109 0 6 93 c11 176 84 385 187 537 56 82 177 208 259 271 37 27 109 71 161
98 228 117 466 152 726 105z m598 -443 c273 -334 314 -806 102 -1185 -38 -68
-150 -216 -164 -216 -4 0 -30 20 -57 44 l-50 44 31 34 c44 47 87 106 119 161
47 82 22 61 -39 -33 -33 -49 -73 -103 -90 -119 l-32 -31 -53 54 -54 55 47 52
c54 60 129 206 153 299 25 97 23 263 -6 364 -28 101 -88 217 -145 281 l-45 50
107 108 c59 59 110 107 113 107 4 0 32 -31 63 -69z m-630 39 c130 -33 228 -90
332 -195 79 -78 99 -106 137 -186 54 -113 77 -208 77 -324 0 -116 -23 -211
-77 -324 -38 -80 -58 -108 -137 -186 -70 -71 -110 -101 -173 -134 -92 -47
-212 -81 -285 -81 l-48 0 -2 68 -2 67 -3 -67 -4 -68 -48 0 c-73 0 -192 34
-284 82 -63 32 -104 64 -173 133 -78 78 -98 104 -137 185 -54 114 -77 209 -77
325 0 116 23 211 77 325 39 81 59 107 137 185 103 103 203 162 328 195 101 26
260 26 362 0z m-1086 -767 c14 -266 176 -544 405 -696 124 -82 276 -135 440
-152 l57 -6 0 -109 0 -109 -52 5 c-304 28 -518 120 -716 308 -203 191 -333
461 -349 724 l-6 92 109 0 109 0 3 -57z m167 0 c11 -95 43 -202 88 -287 31
-62 63 -103 132 -171 128 -128 254 -192 431 -216 l84 -12 0 -75 0 -75 -78 7
c-423 35 -769 383 -808 814 l-7 72 76 0 76 0 6 -57z m1337 -606 c-42 -44 -167
-123 -251 -158 -83 -34 -231 -69 -298 -69 l-43 0 0 73 0 74 86 12 c47 7 118
23 157 37 79 29 199 98 236 138 l24 25 58 -52 58 -52 -27 -28z m61 -5 c13 -15
14 -21 4 -31 -10 -11 -8 -12 9 -7 14 4 27 -1 43 -18 l22 -24 -82 -66 c-156
-124 -371 -211 -556 -223 l-93 -6 0 66 0 66 58 6 c203 22 395 100 522 214 25
22 48 40 51 41 3 0 13 -8 22 -18z m113 -113 c19 -21 19 -21 -31 -66 -177 -161
-398 -251 -682 -277 l-53 -5 0 33 0 34 83 7 c200 17 420 105 572 229 44 36 83
65 86 66 3 0 14 -9 25 -21z"/>
<path d="M1450 2690 c0 -5 7 -10 15 -10 8 0 15 5 15 10 0 6 -7 10 -15 10 -8 0
-15 -4 -15 -10z"/>
<path d="M1538 2693 c6 -2 18 -2 25 0 6 3 1 5 -13 5 -14 0 -19 -2 -12 -5z"/>
<path d="M1620 2696 c0 -2 7 -6 15 -10 8 -3 15 -1 15 4 0 6 -7 10 -15 10 -8 0
-15 -2 -15 -4z"/>
<path d="M1365 2680 c-3 -5 1 -10 9 -10 9 0 16 5 16 10 0 6 -4 10 -9 10 -6 0
-13 -4 -16 -10z"/>
<path d="M1715 2680 c4 -6 11 -8 16 -5 14 9 11 15 -7 15 -8 0 -12 -5 -9 -10z"/>
<path d="M1790 2670 c0 -6 7 -10 15 -10 8 0 15 2 15 4 0 2 -7 6 -15 10 -8 3
-15 1 -15 -4z"/>
<path d="M1285 2660 c-3 -5 1 -10 9 -10 9 0 16 5 16 10 0 6 -4 10 -9 10 -6 0
-13 -4 -16 -10z"/>
<path d="M1875 2640 c3 -5 10 -10 16 -10 5 0 9 5 9 10 0 6 -7 10 -16 10 -8 0
-12 -4 -9 -10z"/>
<path d="M1200 2630 c0 -5 4 -10 9 -10 6 0 13 5 16 10 3 6 -1 10 -9 10 -9 0
-16 -4 -16 -10z"/>
<path d="M1955 2610 c3 -5 11 -10 16 -10 6 0 7 5 4 10 -3 6 -11 10 -16 10 -6
0 -7 -4 -4 -10z"/>
<path d="M1130 2600 c-13 -8 -12 -10 3 -10 9 0 17 5 17 10 0 12 -1 12 -20 0z"/>
<path d="M2035 2570 c3 -5 11 -10 16 -10 6 0 7 5 4 10 -3 6 -11 10 -16 10 -6
0 -7 -4 -4 -10z"/>
<path d="M1057 2563 c-12 -12 -7 -22 8 -17 8 4 15 10 15 15 0 11 -14 12 -23 2z"/>
<path d="M1311 2512 c-47 -15 -86 -33 -89 -41 -3 -9 4 -8 27 4 18 9 66 25 108
36 42 10 79 21 81 24 14 13 -52 1 -127 -23z"/>
<path d="M2100 2532 c0 -5 7 -13 16 -16 10 -4 14 -1 12 6 -5 15 -28 23 -28 10z"/>
<path d="M985 2509 c-11 -17 1 -21 15 -4 8 9 8 15 2 15 -6 0 -14 -5 -17 -11z"/>
<path d="M2170 2482 c0 -12 19 -26 26 -19 2 2 -2 10 -11 17 -9 8 -15 8 -15 2z"/>
<path d="M915 2459 c-4 -6 -5 -13 -2 -16 7 -7 27 6 27 18 0 12 -17 12 -25 -2z"/>
<path d="M857 2403 c-4 -3 -7 -11 -7 -17 0 -6 5 -5 12 2 6 6 9 14 7 17 -3 3
-9 2 -12 -2z"/>
<path d="M961 2285 c-39 -41 -71 -80 -71 -87 0 -7 3 -8 8 -2 4 5 41 44 82 87
40 42 69 77 63 77 -6 0 -43 -34 -82 -75z"/>
<path d="M795 2330 c-3 -5 -2 -10 4 -10 5 0 13 5 16 10 3 6 2 10 -4 10 -5 0
-13 -4 -16 -10z"/>
<path d="M745 2260 c-3 -5 -2 -10 4 -10 5 0 13 5 16 10 3 6 2 10 -4 10 -5 0
-13 -4 -16 -10z"/>
<path d="M707 2193 c-4 -3 -7 -11 -7 -17 0 -6 5 -5 12 2 6 6 9 14 7 17 -3 3
-9 2 -12 -2z"/>
<path d="M667 2113 c-4 -3 -7 -11 -7 -17 0 -6 5 -5 12 2 6 6 9 14 7 17 -3 3
-9 2 -12 -2z"/>
<path d="M636 2031 c-4 -7 -5 -15 -2 -18 9 -9 19 4 14 18 -4 11 -6 11 -12 0z"/>
<path d="M787 2003 c-8 -13 -35 -124 -42 -175 -4 -31 -3 -48 4 -48 6 0 11 15
11 33 0 19 9 69 20 112 18 71 21 100 7 78z"/>
<path d="M610 1945 c0 -8 5 -15 10 -15 6 0 10 7 10 15 0 8 -4 15 -10 15 -5 0
-10 -7 -10 -15z"/>
<path d="M602 1860 c0 -14 2 -19 5 -12 2 6 2 18 0 25 -3 6 -5 1 -5 -13z"/>
<path d="M591 1774 c0 -11 3 -14 6 -6 3 7 2 16 -1 19 -3 4 -6 -2 -5 -13z"/>
<path d="M2295 2350 c3 -5 11 -10 16 -10 6 0 7 5 4 10 -3 6 -11 10 -16 10 -6
0 -7 -4 -4 -10z"/>
<path d="M2350 2291 c0 -5 5 -13 10 -16 6 -3 10 -2 10 4 0 5 -4 13 -10 16 -5
3 -10 2 -10 -4z"/>
<path d="M2395 2210 c3 -5 11 -10 16 -10 6 0 7 5 4 10 -3 6 -11 10 -16 10 -6
0 -7 -4 -4 -10z"/>
<path d="M2436 2135 c4 -8 10 -15 15 -15 4 0 6 7 3 15 -4 8 -10 15 -15 15 -4
0 -6 -7 -3 -15z"/>
<path d="M2470 2056 c0 -9 5 -16 10 -16 6 0 10 4 10 9 0 6 -4 13 -10 16 -5 3
-10 -1 -10 -9z"/>
<path d="M2490 1981 c0 -6 5 -13 10 -16 6 -3 10 1 10 9 0 9 -4 16 -10 16 -5 0
-10 -4 -10 -9z"/>
<path d="M2510 1896 c0 -8 5 -18 10 -21 6 -3 10 1 10 9 0 8 -4 18 -10 21 -5 3
-10 -1 -10 -9z"/>
<path d="M2520 1805 c0 -8 5 -15 10 -15 6 0 10 7 10 15 0 8 -4 15 -10 15 -5 0
-10 -7 -10 -15z"/>
<path d="M2532 1720 c0 -14 2 -19 5 -12 2 6 2 18 0 25 -3 6 -5 1 -5 -13z"/>
<path d="M2526 1641 c-4 -7 -5 -15 -2 -18 9 -9 19 4 14 18 -4 11 -6 11 -12 0z"/>
<path d="M2510 1544 c0 -8 5 -12 10 -9 6 3 10 10 10 16 0 5 -4 9 -10 9 -5 0
-10 -7 -10 -16z"/>
<path d="M2496 1471 c-4 -7 -5 -15 -2 -18 9 -9 19 4 14 18 -4 11 -6 11 -12 0z"/>
<path d="M2466 1385 c-3 -8 -1 -15 4 -15 6 0 10 7 10 15 0 8 -2 15 -4 15 -2 0
-6 -7 -10 -15z"/>
<path d="M2437 1313 c-4 -3 -7 -11 -7 -17 0 -6 5 -5 12 2 6 6 9 14 7 17 -3 3
-9 2 -12 -2z"/>
<path d="M2386 1224 c-4 -10 -1 -14 6 -12 15 5 23 28 10 28 -5 0 -13 -7 -16
-16z"/>
<path d="M2347 1163 c-4 -3 -7 -11 -7 -17 0 -6 5 -5 12 2 6 6 9 14 7 17 -3 3
-9 2 -12 -2z"/>
<path d="M2287 1093 c-10 -9 -9 -23 2 -23 5 0 11 7 15 15 5 15 -5 20 -17 8z"/>
<path d="M1530 2382 c0 -9 158 -23 169 -15 11 8 -11 13 -87 19 -54 5 -82 3
-82 -4z"/>
<path d="M1298 2328 c-38 -17 -68 -35 -68 -39 0 -5 28 5 63 21 34 17 67 30 74
30 6 0 15 5 18 10 11 18 -19 10 -87 -22z"/>
<path d="M1840 2323 c0 -10 140 -97 146 -91 2 3 -19 21 -48 40 -69 45 -98 61
-98 51z"/>
<path d="M1260 2230 c0 -3 5 -11 10 -16 7 -7 10 -113 8 -312 -3 -284 -2 -302
15 -302 14 0 16 4 7 20 -7 12 -9 115 -8 291 l3 272 85 -193 c47 -106 87 -198
89 -203 2 -5 -11 -8 -30 -6 l-34 4 0 -282 0 -283 125 0 c141 0 186 9 230 47
42 35 60 74 60 130 0 82 -39 132 -125 158 -18 6 -16 8 13 20 22 10 38 26 48
51 28 67 -3 121 -84 145 -24 7 -41 17 -39 23 3 6 40 96 83 199 l79 188 3 -271
c1 -175 -1 -278 -8 -290 -10 -19 -7 -20 35 -20 42 0 45 2 35 19 -13 26 -14
587 0 596 20 13 9 21 -24 17 l-34 -4 -94 -221 -95 -222 -47 0 -48 0 -93 220
-94 220 -35 6 c-20 3 -36 3 -36 -1z m220 -463 c0 -2 15 -40 34 -86 l34 -83 20
45 c11 25 26 61 33 81 15 41 30 44 76 17 39 -24 50 -66 29 -114 -18 -45 -35
-53 -126 -60 -41 -4 -85 -9 -97 -13 -23 -6 -23 -6 -23 105 0 67 4 111 10 111
6 0 10 -1 10 -3z m120 -6 c0 -5 -7 -26 -16 -47 l-16 -38 -13 24 c-7 14 -16 35
-19 48 -7 20 -4 22 28 22 20 0 36 -4 36 -9z m83 -225 c58 -24 81 -59 85 -129
6 -119 -55 -166 -215 -167 l-93 0 0 143 c0 139 1 144 23 155 32 15 162 14 200
-2z"/>
<path d="M1052 2139 c-52 -68 -59 -79 -43 -79 6 0 11 4 11 8 0 4 22 36 50 70
27 34 45 62 40 62 -6 0 -31 -27 -58 -61z"/>
<path d="M2060 2141 c0 -5 7 -15 16 -22 9 -7 30 -37 46 -67 17 -29 32 -51 35
-48 6 6 -11 39 -50 98 -30 45 -47 59 -47 39z"/>
<path d="M2205 1826 c3 -27 5 -69 5 -93 0 -27 4 -42 10 -38 12 7 3 127 -12
160 -6 13 -7 4 -3 -29z"/>
<path d="M2180 1535 c0 -11 -31 -85 -58 -137 -2 -5 1 -8 6 -8 5 0 21 26 35 58
34 77 41 102 28 102 -6 0 -11 -7 -11 -15z"/>
<path d="M2026 1271 c-3 -5 -34 -30 -67 -55 -34 -25 -55 -46 -47 -46 7 0 36
18 63 41 66 54 70 58 63 64 -3 4 -9 2 -12 -4z"/>
<path d="M1336 1110 c22 -11 60 -22 85 -25 37 -4 33 -1 -31 20 -88 29 -112 31
-54 5z"/>
<path d="M1700 1098 c-25 -5 -58 -13 -75 -18 l-30 -8 30 -1 c33 -1 142 23 152
33 8 8 -21 6 -77 -6z"/>
<path d="M592 1690 c0 -14 2 -19 5 -12 2 6 2 18 0 25 -3 6 -5 1 -5 -13z"/>
<path d="M590 1611 c0 -6 5 -13 10 -16 6 -3 10 1 10 9 0 9 -4 16 -10 16 -5 0
-10 -4 -10 -9z"/>
<path d="M610 1519 c0 -11 4 -18 10 -14 5 3 7 12 3 20 -7 21 -13 19 -13 -6z"/>
<path d="M630 1436 c0 -9 5 -16 10 -16 6 0 10 4 10 9 0 6 -4 13 -10 16 -5 3
-10 -1 -10 -9z"/>
<path d="M660 1356 c0 -9 5 -16 10 -16 6 0 10 4 10 9 0 6 -4 13 -10 16 -5 3
-10 -1 -10 -9z"/>
<path d="M696 1275 c4 -8 8 -15 10 -15 2 0 4 7 4 15 0 8 -4 15 -10 15 -5 0 -7
-7 -4 -15z"/>
<path d="M736 1205 c4 -8 10 -15 15 -15 4 0 6 7 3 15 -4 8 -10 15 -15 15 -4 0
-6 -7 -3 -15z"/>
<path d="M782 1138 c2 -6 10 -14 16 -16 7 -2 10 2 6 12 -7 18 -28 22 -22 4z"/>
<path d="M840 1071 c0 -5 5 -13 10 -16 6 -3 10 -2 10 4 0 5 -4 13 -10 16 -5 3
-10 2 -10 -4z"/>
<path d="M900 1011 c0 -5 5 -13 10 -16 6 -3 10 -2 10 4 0 5 -4 13 -10 16 -5 3
-10 2 -10 -4z"/>
<path d="M965 950 c3 -5 10 -10 16 -10 5 0 9 5 9 10 0 6 -7 10 -16 10 -8 0
-12 -4 -9 -10z"/>
<path d="M1036 911 c-3 -5 1 -11 9 -15 8 -3 15 -1 15 4 0 13 -18 22 -24 11z"/>
<path d="M1115 860 c3 -5 11 -10 16 -10 6 0 7 5 4 10 -3 6 -11 10 -16 10 -6 0
-7 -4 -4 -10z"/>
<path d="M1190 830 c0 -13 18 -22 24 -11 3 5 -1 11 -9 15 -8 3 -15 1 -15 -4z"/>
<path d="M1270 800 c0 -6 7 -10 15 -10 8 0 15 2 15 4 0 2 -7 6 -15 10 -8 3
-15 1 -15 -4z"/>
<path d="M1358 773 c7 -3 16 -2 19 1 4 3 -2 6 -13 5 -11 0 -14 -3 -6 -6z"/>
<path d="M1435 760 c3 -5 10 -10 16 -10 5 0 9 5 9 10 0 6 -7 10 -16 10 -8 0
-12 -4 -9 -10z"/>
<path d="M1528 753 c7 -3 16 -2 19 1 4 3 -2 6 -13 5 -11 0 -14 -3 -6 -6z"/>
<path d="M758 1575 c-3 -4 1 -31 9 -62 16 -64 61 -168 68 -161 3 3 -2 22 -12
44 -9 21 -26 72 -38 112 -12 40 -24 70 -27 67z"/>
<path d="M950 1183 c0 -16 155 -153 174 -153 16 0 3 17 -24 33 -17 10 -57 43
-90 74 -33 30 -60 51 -60 46z"/>
<path d="M1312 944 c22 -21 228 -53 228 -35 0 6 -18 11 -42 11 -24 0 -70 7
-103 15 -64 15 -92 18 -83 9z"/>
<path d="M1920 1000 c-19 -11 -64 -29 -100 -41 -70 -23 -106 -45 -55 -33 41 9
178 63 189 74 19 18 1 18 -34 0z"/>
<path d="M2165 969 c-11 -17 1 -21 15 -4 8 9 8 15 2 15 -6 0 -14 -5 -17 -11z"/>
<path d="M2097 923 c-12 -12 -7 -22 8 -17 8 4 15 10 15 15 0 11 -14 12 -23 2z"/>
<path d="M2020 870 c0 -5 7 -7 15 -4 8 4 15 8 15 10 0 2 -7 4 -15 4 -8 0 -15
-4 -15 -10z"/>
<path d="M1950 840 c-8 -5 -12 -11 -9 -14 2 -3 11 -1 19 4 8 5 12 11 9 14 -2
3 -11 1 -19 -4z"/>
<path d="M1860 800 c0 -5 7 -7 15 -4 8 4 15 8 15 10 0 2 -7 4 -15 4 -8 0 -15
-4 -15 -10z"/>
<path d="M1780 780 c0 -5 4 -10 9 -10 6 0 13 5 16 10 3 6 -1 10 -9 10 -9 0
-16 -4 -16 -10z"/>
<path d="M1690 760 c0 -5 4 -10 9 -10 6 0 13 5 16 10 3 6 -1 10 -9 10 -9 0
-16 -4 -16 -10z"/>
<path d="M1618 753 c7 -3 16 -2 19 1 4 3 -2 6 -13 5 -11 0 -14 -3 -6 -6z"/>
<path d="M1258 449 c-29 -17 -22 -56 13 -74 36 -19 33 -41 -5 -38 -33 2 -30
-20 3 -25 54 -8 68 45 21 78 -34 24 -35 47 -2 42 25 -4 30 13 6 22 -19 7 -15
8 -36 -5z"/>
<path d="M1390 452 c-31 -10 -50 -36 -50 -69 0 -63 62 -94 111 -55 53 44 4
144 -61 124z m52 -36 c12 -17 9 -61 -4 -74 -28 -28 -78 -1 -78 43 0 43 59 65
82 31z"/>
<path d="M1903 450 c-26 -11 -43 -40 -43 -74 0 -28 42 -66 72 -66 27 0 68 44
68 73 0 48 -53 84 -97 67z m69 -46 c8 -18 7 -29 -6 -49 -19 -29 -42 -32 -68
-8 -23 21 -23 48 1 72 24 24 59 17 73 -15z"/>
<path d="M2178 452 c-9 -2 -20 -13 -24 -24 -5 -17 1 -28 26 -48 37 -30 33 -56
-6 -46 -13 4 -24 2 -24 -4 0 -16 49 -23 65 -10 24 20 18 43 -17 72 -26 22 -30
30 -19 37 8 5 20 7 27 4 6 -2 15 0 18 5 7 11 -21 20 -46 14z"/>
<path d="M917 413 c-3 -21 -9 -53 -12 -70 -5 -21 -4 -33 3 -33 6 0 15 19 20
43 l9 42 21 -45 21 -45 18 42 c21 49 33 55 33 16 0 -30 15 -61 25 -52 5 6 -20
127 -28 135 -3 3 -13 -15 -23 -40 -11 -25 -22 -46 -26 -46 -3 0 -14 20 -25 45
-10 25 -21 45 -24 45 -4 0 -9 -17 -12 -37z"/>
<path d="M1080 381 c0 -70 1 -71 26 -71 39 0 64 18 64 45 0 14 -4 25 -9 25 -5
0 -8 15 -7 33 1 30 -1 32 -36 35 l-38 3 0 -70z m58 30 c-2 -9 -11 -17 -21 -19
-12 -3 -17 3 -17 21 0 20 4 24 20 20 12 -3 20 -12 18 -22z m7 -56 c0 -13 -8
-21 -22 -23 -19 -3 -23 1 -23 23 0 22 4 26 23 23 14 -2 22 -10 22 -23z"/>
<path d="M1500 380 l0 -70 30 0 c17 0 30 5 30 10 0 6 -9 10 -20 10 -18 0 -20
7 -20 60 0 33 -4 60 -10 60 -6 0 -10 -30 -10 -70z"/>
<path d="M1580 396 c0 -58 16 -86 50 -86 10 0 26 10 34 22 20 27 22 118 4 118
-9 0 -12 -14 -10 -48 3 -35 -1 -52 -12 -61 -30 -25 -46 -6 -46 54 0 30 -4 55
-10 55 -5 0 -10 -24 -10 -54z"/>
<path d="M1695 440 c3 -5 13 -10 21 -10 11 0 14 -14 14 -60 0 -33 4 -60 10
-60 6 0 10 27 10 60 0 53 2 60 20 60 11 0 20 5 20 10 0 6 -23 10 -51 10 -31 0
-48 -4 -44 -10z"/>
<path d="M1810 380 c0 -40 4 -70 10 -70 6 0 10 30 10 70 0 40 -4 70 -10 70 -6
0 -10 -30 -10 -70z"/>
<path d="M2020 383 c0 -42 4 -73 10 -73 6 0 10 21 10 48 l1 47 44 -50 45 -49
0 72 c0 51 -4 72 -13 72 -8 0 -11 -14 -8 -47 l3 -48 -45 50 -46 50 -1 -72z"/>
<path d="M969 243 c-11 -13 -10 -18 9 -33 27 -23 28 -34 2 -27 -11 3 -20 1
-20 -4 0 -5 11 -9 25 -9 18 0 25 5 25 19 0 10 -7 21 -15 25 -20 7 -19 24 3 28
16 3 16 4 0 10 -10 4 -22 0 -29 -9z"/>
<path d="M1046 247 c-12 -9 -17 -23 -14 -42 2 -24 8 -31 31 -33 15 -2 27 1 27
6 0 6 -8 8 -19 5 -11 -3 -21 2 -24 11 -9 24 3 46 25 46 10 0 16 5 13 10 -8 13
-18 13 -39 -3z"/>
<path d="M1260 231 l0 -32 -25 28 -24 28 -1 -42 c0 -24 4 -43 9 -43 4 0 6 12
4 28 l-4 27 25 -27 c14 -16 27 -28 29 -28 2 0 3 18 2 40 -1 47 -15 67 -15 21z"/>
<path d="M1308 241 c-20 -16 -21 -22 -10 -45 8 -18 19 -26 37 -26 14 0 25 4
25 8 0 5 -10 8 -22 8 -34 -1 -32 46 2 54 20 5 22 7 8 12 -10 4 -26 -1 -40 -11z"/>
<path d="M1484 245 c-4 -9 -4 -19 0 -22 3 -3 1 -12 -5 -20 -16 -18 5 -43 31
-36 23 6 35 33 15 33 -9 0 -13 9 -12 26 2 30 -20 44 -29 19z m26 -9 c0 -3 -4
-8 -10 -11 -5 -3 -10 -1 -10 4 0 6 5 11 10 11 6 0 10 -2 10 -4z m-5 -46 c3 -5
1 -10 -4 -10 -6 0 -11 5 -11 10 0 6 2 10 4 10 3 0 8 -4 11 -10z"/>
<path d="M1706 247 c-12 -9 -17 -23 -14 -42 2 -24 8 -31 31 -33 15 -2 27 1 27
6 0 5 -10 8 -22 8 -33 -1 -33 48 0 52 12 2 20 8 17 13 -8 12 -18 11 -39 -4z"/>
<path d="M1771 218 c0 -27 3 -48 8 -48 5 0 7 9 4 20 -4 14 0 20 11 20 9 0 16
-8 16 -20 0 -11 5 -20 10 -20 6 0 10 18 10 40 0 22 -4 40 -10 40 -5 0 -10 -7
-10 -15 0 -24 -28 -17 -33 8 -2 12 -5 1 -6 -25z"/>
<path d="M1893 253 c-18 -6 -16 -28 2 -43 8 -7 15 -17 15 -22 0 -6 -7 -8 -15
-4 -8 3 -15 1 -15 -4 0 -13 37 -13 45 1 4 6 -3 21 -15 34 l-22 23 24 4 c16 2
19 5 8 9 -8 3 -21 4 -27 2z"/>
<path d="M1972 253 c-22 -8 -34 -41 -22 -63 20 -38 87 -16 78 26 -4 20 -38 43
-56 37z m33 -43 c0 -16 -6 -26 -18 -28 -19 -4 -32 20 -23 44 9 25 41 13 41
-16z"/>
<path d="M2052 218 c-2 -44 0 -48 21 -47 16 1 17 3 5 6 -12 3 -18 17 -21 46
l-4 42 -1 -47z"/>
<path d="M2259 258 c-5 -19 -2 -88 4 -88 4 0 7 20 7 45 0 25 -2 45 -5 45 -3 0
-5 -1 -6 -2z"/>
<path d="M2311 244 c-37 -26 -21 -74 26 -74 29 0 48 33 34 59 -15 27 -35 32
-60 15z m44 -34 c0 -16 -6 -26 -18 -28 -19 -4 -32 20 -23 44 9 25 41 13 41
-16z"/>
<path d="M2493 253 c-18 -6 -16 -28 2 -43 8 -7 15 -17 15 -22 0 -6 -7 -8 -15
-4 -8 3 -15 1 -15 -4 0 -13 37 -13 45 1 4 6 -3 21 -15 34 l-22 23 24 4 c16 2
19 5 8 9 -8 3 -21 4 -27 2z"/>
<path d="M610 210 c0 -36 2 -40 25 -40 32 0 55 41 35 65 -7 8 -23 15 -36 15
-21 0 -24 -5 -24 -40z m45 0 c0 -16 -6 -26 -17 -28 -14 -3 -18 3 -18 28 0 25
4 31 18 28 11 -2 17 -12 17 -28z"/>
<path d="M704 213 l-19 -38 41 0 40 0 -20 35 c-11 19 -20 36 -22 38 -1 2 -10
-14 -20 -35z m31 -3 c3 -5 -1 -10 -10 -10 -9 0 -13 5 -10 10 3 6 8 10 10 10 2
0 7 -4 10 -10z"/>
<path d="M778 243 c6 -2 12 -20 12 -39 0 -19 5 -34 10 -34 6 0 10 15 10 34 0
19 6 37 13 39 6 3 -4 5 -23 5 -19 0 -29 -2 -22 -5z"/>
<path d="M857 215 c-9 -20 -17 -37 -17 -38 0 -1 18 -2 39 -2 l39 0 -19 37
c-11 21 -21 38 -22 38 -2 0 -11 -16 -20 -35z m28 -5 c3 -5 1 -10 -4 -10 -6 0
-11 5 -11 10 0 6 2 10 4 10 3 0 8 -4 11 -10z"/>
<path d="M1110 210 c0 -22 5 -40 10 -40 6 0 10 18 10 40 0 22 -4 40 -10 40 -5
0 -10 -18 -10 -40z"/>
<path d="M1150 210 c0 -35 3 -40 23 -39 16 1 18 2 5 6 -10 2 -18 8 -18 13 0 5
8 14 18 19 16 10 16 10 0 11 -10 0 -18 4 -18 9 0 5 8 12 18 14 13 4 11 5 -5 6
-20 1 -23 -4 -23 -39z"/>
<path d="M1380 210 c0 -35 3 -40 23 -39 16 1 18 2 5 6 -10 2 -18 11 -18 19 0
8 5 12 10 9 6 -3 10 -1 10 4 0 6 -4 11 -10 11 -17 0 -11 18 8 23 13 4 11 5 -5
6 -20 1 -23 -4 -23 -39z"/>
<path d="M1563 243 c12 -3 17 -16 19 -41 l1 -37 4 35 c3 19 10 38 16 42 7 4
-4 7 -23 7 -19 -1 -27 -3 -17 -6z"/>
<path d="M1630 210 c0 -35 3 -40 23 -39 16 1 18 2 5 6 -21 5 -23 14 -6 31 9 9
9 12 0 12 -18 0 -14 18 6 23 13 4 11 5 -5 6 -20 1 -23 -4 -23 -39z"/>
<path d="M2100 226 c0 -39 11 -56 35 -56 15 0 25 8 29 23 9 33 7 57 -4 57 -5
0 -10 -16 -10 -35 0 -24 -5 -35 -15 -35 -10 0 -15 11 -15 35 0 19 -4 35 -10
35 -5 0 -10 -11 -10 -24z"/>
<path d="M2188 243 c6 -2 12 -20 12 -39 0 -19 5 -34 10 -34 6 0 10 15 10 34 0
19 6 37 13 39 6 3 -4 5 -23 5 -19 0 -29 -2 -22 -5z"/>
<path d="M2393 210 c-1 -22 2 -40 8 -40 5 0 9 12 9 26 l0 25 25 -28 24 -28 1
43 c0 23 -5 42 -10 42 -6 0 -8 -12 -4 -27 l5 -28 -25 28 c-14 15 -27 27 -28
27 -2 0 -4 -18 -5 -40z"/>
</g>
</svg>
