<?xml version="1.0" standalone="no"?>
<!DOCTYPE svg PUBLIC "-//W3C//DTD SVG 20010904//EN"
 "http://www.w3.org/TR/2001/REC-SVG-20010904/DTD/svg10.dtd">
<svg version="1.0" xmlns="http://www.w3.org/2000/svg"
 width="300.000000pt" height="303.000000pt" viewBox="0 0 300.000000 303.000000"
 preserveAspectRatio="xMidYMid meet">
<metadata>
Created by potrace 1.10, written by Peter Selinger 2001-2011
</metadata>
<g transform="translate(0.000000,303.000000) scale(0.100000,-0.100000)"
fill="#000000" stroke="none">
<path d="M1395 2859 c-150 -22 -329 -91 -465 -181 -102 -67 -244 -210 -317
-320 -107 -162 -164 -319 -186 -520 l-11 -107 -41 -4 -40 -4 41 -1 41 -2 7
-82 c19 -223 103 -439 237 -615 58 -74 194 -202 269 -251 173 -114 412 -192
590 -192 38 0 39 0 43 -43 l4 -42 1 43 c2 42 2 42 41 42 229 0 528 119 704
280 l54 49 31 -32 c17 -17 34 -29 36 -26 3 3 -21 31 -53 63 l-59 58 70 87 c42
52 91 129 124 196 323 651 -88 1424 -810 1524 -97 14 -146 14 -146 1 0 -6 26
-10 59 -10 128 0 316 -52 448 -125 88 -49 246 -168 233 -177 -3 -1 -54 -50
-112 -107 l-106 -104 -45 39 c-172 150 -429 208 -658 149 -290 -75 -507 -323
-550 -629 l-12 -86 -75 0 -75 0 7 73 c25 274 175 524 405 672 137 89 279 134
446 142 151 7 257 -13 428 -82 9 -4 17 -3 17 2 0 9 -88 45 -165 68 -82 23
-223 38 -299 31 -244 -23 -445 -121 -607 -294 -145 -155 -216 -319 -245 -564
l-5 -48 -105 0 -104 0 0 59 c0 130 56 330 130 469 215 399 650 632 1100 591
243 -22 486 -130 652 -287 l37 -35 -22 -18 c-12 -9 -19 -20 -15 -24 4 -4 33
17 65 48 32 31 54 59 50 63 -4 4 -22 -7 -40 -24 l-33 -32 -30 31 c-44 47 -150
122 -234 168 -201 107 -471 154 -705 120z m998 -495 c84 -111 148 -239 184
-369 26 -92 28 -113 27 -275 0 -146 -4 -188 -22 -252 -31 -112 -77 -218 -134
-305 -52 -79 -126 -173 -137 -173 -3 1 -28 20 -55 44 l-50 44 48 53 c55 61
132 186 121 197 -4 4 -9 2 -12 -4 -12 -34 -84 -142 -123 -185 l-45 -50 -54 54
-54 55 28 29 c49 51 116 163 145 243 61 165 62 339 4 502 -29 80 -98 200 -138
237 -14 14 -26 27 -26 31 0 12 205 217 215 215 6 -1 41 -42 78 -91z m-670 70
c40 -9 114 -36 166 -61 79 -38 108 -59 181 -131 144 -144 208 -287 217 -487 7
-136 -15 -237 -79 -365 -34 -68 -61 -104 -133 -176 -78 -78 -104 -98 -185
-137 -98 -47 -208 -77 -279 -77 l-41 0 -2 68 -2 67 -3 -68 -4 -67 -40 0 c-71
0 -182 31 -278 77 -79 38 -107 58 -180 131 -97 98 -149 180 -188 297 -24 71
-27 95 -27 220 0 124 3 149 26 217 41 123 92 204 187 299 99 98 204 158 333
190 92 22 237 24 331 3z m-1068 -761 c30 -249 105 -420 252 -574 156 -163 355
-260 586 -284 l67 -7 0 -107 0 -106 -94 6 c-386 29 -758 288 -922 644 -63 137
-104 303 -104 421 l0 54 104 0 105 0 6 -47z m174 -37 c48 -346 304 -602 649
-649 l82 -11 0 -73 0 -73 -42 0 c-63 0 -214 34 -287 64 -142 58 -286 168 -377
289 -95 127 -166 308 -180 462 l-7 75 75 0 75 0 12 -84z m1337 -574 c-35 -39
-178 -130 -253 -161 -89 -37 -186 -61 -274 -68 l-69 -6 0 75 0 74 85 12 c146
19 281 78 379 163 l41 37 56 -52 56 -51 -21 -23z m57 -10 c13 -15 14 -21 4
-31 -10 -11 -8 -12 9 -7 14 4 27 -1 43 -17 l22 -24 -74 -58 c-100 -79 -184
-129 -281 -166 -98 -38 -240 -69 -318 -69 l-58 0 0 64 0 64 63 7 c107 11 226
44 314 85 86 40 192 110 227 149 23 26 28 26 49 3z m112 -112 c17 -19 17 -21
-1 -42 -41 -46 -182 -142 -278 -188 -122 -60 -259 -97 -389 -108 l-97 -8 0 31
0 31 103 11 c225 26 428 115 597 262 42 36 42 36 65 11z"/>
<path d="M1530 2383 c0 -10 160 -25 169 -17 10 9 -10 14 -87 20 -53 4 -82 3
-82 -3z"/>
<path d="M1301 2332 c-35 -15 -66 -33 -68 -39 -3 -8 23 0 59 17 35 17 68 30
75 30 6 0 15 5 18 10 10 17 -16 11 -84 -18z"/>
<path d="M1840 2322 c0 -6 24 -24 54 -41 30 -16 57 -35 61 -41 3 -5 14 -10 23
-10 12 0 9 7 -13 25 -42 34 -125 78 -125 67z"/>
<path d="M1260 2230 c0 -3 5 -11 10 -16 7 -7 10 -113 8 -312 -3 -279 -2 -302
14 -302 14 0 15 5 7 28 -5 16 -8 140 -7 292 l3 265 85 -194 c47 -107 87 -199
89 -204 2 -5 -12 -8 -30 -6 l-34 4 0 -282 0 -283 125 0 c141 0 186 9 230 47
42 35 60 74 60 130 0 71 -26 113 -89 144 -50 25 -52 27 -27 33 58 14 80 114
35 162 -13 14 -43 30 -67 36 -23 6 -42 14 -40 18 2 3 39 93 83 199 l80 192 3
-271 c1 -175 -1 -278 -8 -290 -10 -19 -7 -20 35 -20 42 0 45 2 35 19 -14 27
-14 565 0 592 10 17 7 19 -23 19 l-34 0 -96 -222 -95 -223 -47 0 -47 0 -94
220 -93 220 -36 6 c-19 3 -35 3 -35 -1z m220 -463 c0 -2 16 -41 34 -87 32 -77
36 -82 45 -60 31 81 62 140 73 140 29 0 76 -40 83 -68 7 -36 -15 -96 -42 -110
-10 -5 -52 -12 -93 -15 -41 -3 -85 -9 -97 -12 -23 -7 -23 -7 -23 104 0 67 4
111 10 111 6 0 10 -1 10 -3z m120 -6 c0 -5 -7 -26 -16 -47 l-16 -38 -13 24
c-7 14 -16 35 -19 48 -7 20 -4 22 28 22 20 0 36 -4 36 -9z m83 -225 c58 -24
81 -59 85 -129 6 -120 -59 -170 -215 -165 l-88 3 -3 141 c-2 138 -2 141 20
152 33 15 163 15 201 -2z"/>
<path d="M1078 2173 c-45 -50 -81 -103 -74 -111 4 -4 12 1 17 10 5 9 29 41 54
72 47 57 49 78 3 29z"/>
<path d="M2060 2141 c0 -5 7 -15 16 -22 9 -7 30 -38 47 -68 17 -30 33 -49 35
-42 4 13 -76 141 -89 141 -5 0 -9 -4 -9 -9z"/>
<path d="M2204 1826 c3 -27 6 -69 6 -93 0 -28 4 -42 11 -38 12 8 2 142 -13
165 -6 10 -7 -1 -4 -34z"/>
<path d="M2171 1508 c-7 -24 -21 -58 -32 -76 -21 -37 -23 -42 -10 -42 8 0 71
132 71 150 0 26 -18 6 -29 -32z"/>
<path d="M2020 1271 c0 -4 -27 -28 -60 -52 -33 -24 -56 -45 -50 -47 6 -2 37
16 68 40 55 44 74 68 53 68 -6 0 -11 -4 -11 -9z"/>
<path d="M1305 1122 c12 -12 110 -42 138 -42 41 0 16 9 -123 46 -17 5 -22 3
-15 -4z"/>
<path d="M1677 1095 c-73 -13 -98 -25 -51 -25 33 0 142 24 151 34 8 8 -18 6
-100 -9z"/>
<path d="M758 1575 c-9 -9 19 -109 49 -174 14 -31 27 -51 30 -44 2 6 -5 30
-16 52 -11 22 -29 69 -39 106 -10 36 -21 63 -24 60z"/>
<path d="M950 1183 c0 -22 165 -162 177 -149 3 3 4 7 2 9 -46 32 -93 70 -131
106 -27 24 -48 40 -48 34z"/>
<path d="M1323 939 c19 -11 155 -38 195 -39 12 0 22 5 22 10 0 6 -17 10 -37
10 -21 0 -69 7 -108 15 -82 18 -97 18 -72 4z"/>
<path d="M1896 989 c-32 -15 -81 -34 -108 -40 -26 -7 -48 -17 -48 -22 0 -12
37 -2 132 34 69 27 97 44 87 53 -2 2 -31 -9 -63 -25z"/>
<path d="M1335 2521 c-83 -25 -115 -39 -115 -50 0 -6 17 -3 38 6 20 9 68 24
106 34 38 11 71 21 74 24 11 11 -46 3 -103 -14z"/>
<path d="M973 2303 c-31 -32 -62 -68 -71 -81 -31 -48 -4 -27 71 54 43 46 73
84 67 84 -6 0 -37 -26 -67 -57z"/>
<path d="M781 1987 c-11 -29 -41 -169 -41 -192 0 -8 5 -15 10 -15 6 0 10 15
10 33 0 19 9 69 20 112 20 77 20 113 1 62z"/>
<path d="M1258 449 c-29 -17 -22 -56 13 -74 36 -19 33 -41 -5 -38 -33 2 -30
-20 3 -25 53 -8 68 45 21 78 -37 26 -38 40 -5 40 28 0 34 15 9 24 -19 7 -15 8
-36 -5z"/>
<path d="M1366 439 c-68 -53 -1 -159 75 -118 46 24 42 105 -7 128 -33 15 -37
14 -68 -10z m72 -21 c19 -19 15 -66 -7 -78 -27 -14 -37 -13 -55 6 -32 31 -14
84 29 84 12 0 26 -5 33 -12z"/>
<path d="M1910 453 c-53 -19 -67 -83 -27 -121 13 -12 33 -22 46 -22 29 0 71
43 71 73 0 44 -51 84 -90 70z m59 -45 c16 -44 -22 -94 -56 -72 -30 19 -38 40
-25 68 16 35 69 37 81 4z"/>
<path d="M2166 444 c-24 -23 -20 -40 15 -67 36 -28 31 -51 -8 -41 -19 5 -24 3
-21 -7 6 -18 45 -24 64 -9 23 20 16 47 -16 70 -16 12 -30 26 -30 31 0 5 14 9
30 9 32 0 40 14 14 24 -24 9 -31 8 -48 -10z"/>
<path d="M917 413 c-4 -21 -9 -53 -13 -70 -4 -21 -3 -33 4 -33 6 0 15 19 20
43 l9 42 21 -45 21 -45 19 43 c20 45 32 46 32 1 0 -25 15 -47 25 -37 6 5 -19
125 -27 133 -3 3 -14 -14 -24 -39 -11 -25 -22 -46 -26 -46 -3 0 -14 20 -25 45
-10 25 -21 45 -24 45 -4 0 -9 -17 -12 -37z"/>
<path d="M1080 381 c0 -70 1 -71 26 -71 39 0 64 18 64 45 0 14 -4 25 -9 25 -5
0 -8 15 -7 33 1 30 -1 32 -36 35 l-38 3 0 -70z m58 32 c-5 -26 -38 -29 -38 -4
0 15 6 21 21 21 14 0 19 -5 17 -17z m1 -42 c19 -12 6 -41 -19 -41 -15 0 -20 7
-20 25 0 26 14 31 39 16z"/>
<path d="M1500 380 l0 -70 30 0 c17 0 30 5 30 10 0 6 -9 10 -20 10 -18 0 -20
7 -20 60 0 33 -4 60 -10 60 -6 0 -10 -30 -10 -70z"/>
<path d="M1580 396 c0 -78 43 -113 83 -68 22 24 24 122 3 122 -11 0 -13 -10
-9 -39 6 -41 -10 -81 -31 -81 -18 0 -26 22 -26 76 0 24 -4 44 -10 44 -5 0 -10
-24 -10 -54z"/>
<path d="M1695 440 c3 -5 13 -10 21 -10 11 0 14 -15 14 -61 0 -42 4 -59 12
-57 8 3 11 24 9 61 -2 52 -1 57 18 57 12 0 21 5 21 10 0 6 -23 10 -51 10 -31
0 -48 -4 -44 -10z"/>
<path d="M1810 379 c0 -93 21 -90 24 4 1 48 -3 67 -11 67 -9 0 -13 -21 -13
-71z"/>
<path d="M2020 382 c0 -54 3 -73 12 -70 8 3 12 21 10 49 l-2 44 45 -50 45 -50
0 73 c0 58 -3 72 -15 72 -12 0 -14 -8 -9 -40 4 -22 4 -40 1 -40 -4 0 -24 19
-46 43 l-40 42 -1 -73z"/>
<path d="M773 248 c-2 -5 1 -8 6 -8 6 0 11 -16 11 -35 0 -19 5 -35 10 -35 6 0
10 16 10 35 0 19 5 35 10 35 6 0 10 3 10 8 0 4 -12 7 -26 7 -14 0 -28 -3 -31
-7z"/>
<path d="M969 244 c-11 -14 -10 -19 9 -34 28 -23 28 -30 0 -30 -18 0 -20 -2
-9 -9 8 -5 20 -7 28 -4 18 7 17 42 -2 49 -20 8 -19 24 1 24 8 0 12 5 9 10 -9
14 -21 12 -36 -6z"/>
<path d="M1046 247 c-12 -9 -17 -23 -14 -42 2 -24 8 -31 31 -33 15 -2 27 1 27
7 0 6 -6 8 -13 5 -18 -7 -39 20 -31 40 3 9 15 16 26 16 10 0 16 5 13 10 -8 13
-18 13 -39 -3z"/>
<path d="M1260 235 l0 -28 -25 23 -25 23 0 -41 c0 -23 4 -42 9 -42 4 0 6 12 4
28 l-4 27 25 -27 c14 -16 27 -28 29 -28 2 0 3 18 2 40 -1 45 -15 68 -15 25z"/>
<path d="M1312 244 c-40 -27 -22 -75 28 -73 l25 1 -25 7 c-34 9 -36 54 -2 59
12 2 20 8 17 13 -8 13 -17 11 -43 -7z"/>
<path d="M1393 253 c-8 -3 -13 -22 -13 -44 0 -34 3 -39 23 -38 16 1 18 2 5 6
-10 2 -18 11 -18 19 0 8 5 12 10 9 6 -3 10 -1 10 4 0 6 -4 11 -10 11 -17 0
-11 18 8 22 9 2 13 6 7 9 -5 4 -16 4 -22 2z"/>
<path d="M1484 245 c-4 -9 -4 -19 0 -22 3 -3 1 -12 -5 -20 -16 -19 5 -41 34
-36 24 5 34 33 11 33 -8 0 -12 11 -11 26 2 30 -20 44 -29 19z"/>
<path d="M1554 249 c-3 -5 2 -9 10 -9 11 0 16 -11 18 -37 l1 -38 4 35 c3 19 9
38 15 41 5 4 -2 9 -16 11 -15 3 -29 1 -32 -3z"/>
<path d="M1712 253 c-22 -9 -34 -41 -22 -63 11 -20 60 -29 60 -11 0 5 -9 7
-19 4 -13 -3 -21 2 -26 16 -8 27 1 41 26 41 11 0 17 5 14 10 -7 11 -13 11 -33
3z"/>
<path d="M1770 216 c0 -25 4 -46 9 -46 5 0 8 7 7 16 0 9 5 19 12 21 7 3 12 -4
12 -16 0 -12 5 -21 10 -21 6 0 10 18 10 40 0 22 -4 40 -10 40 -5 0 -10 -7 -10
-15 0 -8 -7 -15 -16 -15 -10 0 -14 6 -11 15 4 8 2 17 -3 20 -6 4 -10 -13 -10
-39z"/>
<path d="M1893 253 c-18 -6 -16 -40 2 -47 8 -3 15 -10 15 -17 0 -6 -7 -9 -15
-5 -8 3 -15 1 -15 -3 0 -11 22 -19 38 -14 17 6 15 28 -3 43 -20 16 -19 28 3
32 14 3 14 5 2 9 -8 3 -21 4 -27 2z"/>
<path d="M1960 240 c-25 -25 -25 -35 1 -61 18 -18 23 -19 42 -6 28 18 33 50
12 71 -21 21 -31 20 -55 -4z m45 -30 c0 -16 -6 -26 -18 -28 -19 -4 -32 20 -23
44 9 25 41 13 41 -16z"/>
<path d="M2050 217 c0 -42 2 -47 23 -46 17 1 18 2 4 6 -14 4 -18 13 -15 38 1
19 -1 37 -5 41 -4 4 -7 -14 -7 -39z"/>
<path d="M2148 223 c-4 -49 -28 -57 -28 -9 0 20 -4 36 -10 36 -16 0 -12 -57 6
-74 8 -9 17 -16 19 -16 14 0 35 36 35 60 0 43 -18 46 -22 3z"/>
<path d="M2257 253 c-11 -10 -8 -83 3 -83 6 0 10 20 10 45 0 46 -2 50 -13 38z"/>
<path d="M2305 244 c-21 -21 -16 -53 12 -71 19 -13 24 -12 42 6 26 26 26 36 1
61 -24 24 -34 25 -55 4z m50 -34 c0 -16 -6 -26 -18 -28 -19 -4 -32 20 -23 44
9 25 41 13 41 -16z"/>
<path d="M2446 251 c-4 -5 -3 -16 0 -25 9 -23 -14 -20 -28 4 -19 30 -28 24
-28 -20 0 -22 5 -40 10 -40 6 0 10 10 10 22 l0 21 25 -23 25 -23 0 46 c0 46
-4 56 -14 38z"/>
<path d="M2493 253 c-18 -6 -16 -28 2 -43 8 -7 15 -17 15 -22 0 -6 -7 -8 -15
-4 -8 3 -15 1 -15 -3 0 -11 22 -19 38 -14 17 6 15 40 -3 47 -20 7 -19 24 3 28
14 3 14 5 2 9 -8 3 -21 4 -27 2z"/>
<path d="M610 210 c0 -36 2 -40 25 -40 32 0 55 41 35 65 -7 8 -23 15 -36 15
-21 0 -24 -5 -24 -40z m45 0 c0 -16 -6 -26 -17 -28 -14 -3 -18 3 -18 28 0 25
4 31 18 28 11 -2 17 -12 17 -28z"/>
<path d="M704 213 l-19 -38 40 0 41 0 -18 38 c-10 20 -20 37 -22 37 -2 0 -12
-17 -22 -37z"/>
<path d="M857 215 c-9 -20 -17 -37 -17 -38 0 -1 18 -2 39 -2 l39 0 -19 37
c-11 21 -21 38 -22 38 -2 0 -11 -16 -20 -35z"/>
<path d="M1110 210 c0 -22 5 -40 10 -40 6 0 10 18 10 40 0 22 -4 40 -10 40 -5
0 -10 -18 -10 -40z"/>
<path d="M1150 210 c0 -35 3 -40 23 -39 16 1 18 2 5 6 -21 5 -23 14 -6 31 9 9
9 12 0 12 -18 0 -14 18 6 23 13 4 11 5 -5 6 -20 1 -23 -4 -23 -39z"/>
<path d="M1630 210 c0 -35 3 -40 23 -39 16 1 18 2 5 6 -21 5 -23 14 -6 31 9 9
9 12 0 12 -18 0 -14 18 6 23 13 4 11 5 -5 6 -20 1 -23 -4 -23 -39z"/>
<path d="M2188 243 c6 -2 12 -20 12 -39 0 -19 5 -34 10 -34 6 0 10 15 10 34 0
19 6 37 13 39 6 3 -4 5 -23 5 -19 0 -29 -2 -22 -5z"/>
</g>
</svg>
