<?xml version="1.0" standalone="no"?>
<!DOCTYPE svg PUBLIC "-//W3C//DTD SVG 20010904//EN"
 "http://www.w3.org/TR/2001/REC-SVG-20010904/DTD/svg10.dtd">
<svg version="1.0" xmlns="http://www.w3.org/2000/svg"
 width="450.000000pt" height="456.000000pt" viewBox="0 0 450.000000 456.000000"
 preserveAspectRatio="xMidYMid meet">
<metadata>
Created by potrace 1.10, written by Peter Selinger 2001-2011
</metadata>
<g transform="translate(0.000000,456.000000) scale(0.050000,-0.050000)"
fill="#ffffff" stroke="none">
<path d="M4748 5510 c-194 -225 -359 -410 -365 -410 -7 0 -190 177 -407 394
-217 217 -398 390 -402 385 -4 -5 -405 -461 -891 -1013 -486 -552 -883 -1009
-883 -1015 0 -6 173 -10 385 -10 l385 2 480 559 c264 308 499 577 521 599 l42
39 394 -398 394 -399 559 643 558 644 -193 195 c-107 107 -201 195 -209 195
-8 0 -173 -184 -368 -410z"/>
<path d="M5712 4927 l-178 -210 438 -439 438 -438 408 0 408 0 -656 645 c-360
355 -661 647 -668 649 -6 2 -92 -91 -190 -207z"/>
<path d="M4821 3910 c-180 -215 -346 -406 -367 -425 -37 -34 -51 -22 -434 375
l-396 410 -79 -90 c-44 -49 -130 -148 -192 -219 l-112 -130 74 -77 c41 -43
315 -311 609 -597 l533 -519 488 556 c269 306 516 588 550 627 l61 70 -190
205 c-104 112 -196 204 -203 204 -7 0 -161 -176 -342 -390z"/>
</g>
</svg>
