<?xml version="1.0" standalone="no"?>
<!DOCTYPE svg PUBLIC "-//W3C//DTD SVG 20010904//EN"
 "http://www.w3.org/TR/2001/REC-SVG-20010904/DTD/svg10.dtd">
<svg version="1.0" xmlns="http://www.w3.org/2000/svg"
 width="300.000000pt" height="304.000000pt" viewBox="0 0 300.000000 304.000000"
 preserveAspectRatio="xMidYMid meet">
<metadata>
Created by potrace 1.10, written by Peter Selinger 2001-2011
</metadata>
<g transform="translate(0.000000,304.000000) scale(0.050000,-0.050000)"
fill="#000000" stroke="none">
<path d="M3158 3733 l-248 -291 -275 274 -275 273 -47 -49 c-26 -28 -279 -315
-563 -640 -284 -324 -544 -619 -577 -655 l-61 -65 271 0 270 0 356 412 356
412 275 -274 275 -274 385 444 386 444 -140 140 -140 140 -248 -291z"/>
<path d="M3825 3336 l-121 -144 293 -305 293 -305 280 -1 280 -1 -450 450
c-247 248 -451 450 -452 450 -1 0 -57 -65 -123 -144z"/>
<path d="M3220 2649 c-115 -138 -226 -270 -246 -293 l-36 -43 -280 278 -279
279 -119 -130 c-65 -71 -119 -139 -119 -150 -1 -11 182 -203 406 -427 l407
-407 359 407 c198 224 366 419 375 433 14 23 -212 305 -245 304 -7 -1 -107
-114 -223 -251z"/>
</g>
</svg>
