<svg width="436" height="196" viewBox="0 0 436 196" fill="none" xmlns="http://www.w3.org/2000/svg">
    <path fill-rule="evenodd" clip-rule="evenodd" d="M191.065 31.0786C185.575 28.4252 179.783 27.1 174 27.1V27.05H126.304L137.659 55.2415L182.72 165.883L148.725 165.314L148.623 165.05H136V164.92L105.618 165.228L82.0025 104.464L58.3815 43.1994L71.9753 3.05964L80.2553 22.4768L94.0155 56.3394L137.859 163.05H147.853L124.892 103.419L102.033 43.5739L102 43.6501L82.9474 0.150101H114V0.0500031H174V0C183.975 0 193.788 2.29599 202.857 6.67831C211.916 11.056 220 17.4012 226.714 25.2343C233.425 33.0638 238.659 42.251 242.202 52.2286C245.689 62.051 247.493 72.5132 247.549 83.05H247.55C247.55 83.1318 247.55 83.2136 247.55 83.2954C247.55 83.3802 247.55 83.4651 247.55 83.55H247.549C247.484 95.0064 245.191 106.342 240.797 116.928C236.339 127.668 229.806 137.425 221.571 145.642L221.549 145.62C217.301 149.868 212.712 153.754 207.975 157.082C202.918 160.635 197.624 163.599 192.343 165.667L182.461 140.433L182.519 140.41L174.405 120.577L175.33 120.198L175.368 120.289L176.081 119.998L184.149 139.718C186.644 138.584 189.437 136.986 192.397 134.907C196.023 132.359 199.665 129.253 203.072 125.764L203.093 125.785C208.496 120.226 212.797 113.695 215.768 106.539C218.828 99.1654 220.418 91.2689 220.45 83.2914C220.421 75.7008 219.124 68.2249 216.664 61.2957C214.176 54.2878 210.57 48.0414 206.138 42.8708C201.71 37.7036 196.565 33.7365 191.065 31.0786ZM63 163.05V164.05V165.05H0V164.05V163.05H63ZM242.817 161.05H234V162.05V163.05H247V163.035H279V163.05H300.486L300.522 163.144L333.521 163.144L333.484 163.05H346V162.05V161.76L346.522 163.144L379.521 163.144L379.484 163.05H391V162.05V161.76L391.522 163.144L424.521 163.144L424.484 163.05H436V162.05V161.05H423.686L381.021 54.1443L367.604 20.1442L359.521 0.644334L345.522 40.6445L368.522 102.145L390.732 161.05H378.686L336.021 54.1443L322.604 20.1442L314.521 0.644334L300.522 40.6445L323.522 102.145L345.732 161.05H333V161.838L290.021 54.1443L276.604 20.1442L268.521 0.644334L254.522 40.6445L277.522 102.145L299.732 161.05H279.183L261 119.535L242.817 161.05ZM46.0526 163.035L27 119.535L7.94744 163.035H46.0526ZM255.397 195H262.46C264.676 195 266.565 194.563 268.128 193.69C269.69 192.809 270.884 191.552 271.707 189.918C272.538 188.285 272.954 186.332 272.954 184.059C272.954 181.793 272.542 179.851 271.718 178.232C270.901 176.605 269.726 175.359 268.192 174.492C266.658 173.619 264.822 173.182 262.684 173.182H255.397V195ZM262.279 192.124H258.689V176.058H262.482C264.072 176.058 265.404 176.367 266.477 176.985C267.549 177.603 268.355 178.509 268.895 179.702C269.442 180.895 269.715 182.347 269.715 184.059C269.715 185.785 269.442 187.248 268.895 188.448C268.348 189.641 267.524 190.554 266.423 191.186C265.322 191.811 263.941 192.124 262.279 192.124ZM307.047 173.182V195H320.854V192.166H310.339V185.487H320.013V182.663H310.339V176.016H320.726V173.182H307.047ZM363.103 190.952L357.031 173.182H353.472L361.324 195H365.127L372.979 173.182H369.42L363.348 190.952H363.103ZM416.623 176.57C417.447 177.124 417.916 177.905 418.029 178.913H421.204C421.176 177.741 420.835 176.705 420.181 175.803C419.528 174.893 418.633 174.18 417.497 173.661C416.367 173.143 415.064 172.884 413.587 172.884C412.124 172.884 410.81 173.146 409.645 173.672C408.48 174.19 407.557 174.918 406.875 175.856C406.193 176.793 405.852 177.891 405.852 179.148C405.852 180.668 406.36 181.889 407.376 182.812C408.399 183.736 409.784 184.435 411.531 184.911L414.109 185.614C414.89 185.82 415.59 186.058 416.208 186.328C416.833 186.598 417.326 186.939 417.688 187.351C418.058 187.763 418.242 188.292 418.242 188.938C418.242 189.648 418.033 190.27 417.614 190.803C417.195 191.328 416.62 191.74 415.888 192.038C415.164 192.33 414.336 192.475 413.406 192.475C412.561 192.475 411.783 192.351 411.073 192.102C410.37 191.847 409.791 191.46 409.336 190.941C408.889 190.415 408.633 189.759 408.569 188.97H405.267C405.338 190.284 405.71 191.42 406.385 192.379C407.06 193.331 407.994 194.066 409.187 194.585C410.38 195.103 411.793 195.362 413.427 195.362C415.132 195.362 416.584 195.085 417.784 194.531C418.992 193.977 419.911 193.221 420.543 192.262C421.183 191.303 421.502 190.206 421.502 188.97C421.502 187.99 421.307 187.148 420.916 186.445C420.533 185.742 420.029 185.153 419.404 184.677C418.779 184.201 418.1 183.817 417.369 183.526C416.637 183.235 415.923 183.004 415.227 182.834L413.097 182.28C412.671 182.173 412.227 182.038 411.765 181.875C411.303 181.705 410.87 181.495 410.465 181.246C410.068 180.991 409.745 180.675 409.496 180.298C409.254 179.922 409.134 179.474 409.134 178.956C409.134 178.338 409.311 177.788 409.666 177.305C410.029 176.815 410.536 176.431 411.19 176.154C411.843 175.87 412.617 175.728 413.512 175.728C414.762 175.728 415.799 176.009 416.623 176.57Z" fill="#2B2B2B"/>
</svg>
