<svg width="68" height="82" viewBox="0 0 68 82" fill="none" xmlns="http://www.w3.org/2000/svg">
<g clip-path="url(#clip0_497_889)">
<path d="M50.0659 27.9624C50.0659 27.9624 50.4877 59.9957 51.0075 76.719C51.0948 79.4071 7.20993 67.4264 1.95703 65.9188C16.7052 53.188 50.0659 27.9624 50.0659 27.9624Z" fill="url(#paint0_linear_497_889)"/>
<path d="M50.0658 27.9624C50.0658 27.9624 50.0658 27.9624 1.9267 65.9187C-46.2124 103.875 1.81512 66.0032 1.74637 66.018C1.67762 66.0328 1.60596 66.0272 1.54043 66.0019C0.705893 25.2189 0.683388 24.7189 0.683388 15.7997C0.683388 13.4872 3.06137 14.0638 3.06137 14.0638L50.0658 27.9624Z" fill="url(#paint1_linear_497_889)"/>
<path d="M64.0659 13.9624C64.0659 13.9624 64.4877 45.9957 65.0075 62.719C65.0948 65.4071 21.2099 53.4264 15.957 51.9188C30.7052 39.188 64.0659 13.9624 64.0659 13.9624Z" fill="#2AA852"/>
<path d="M64.0658 13.9624C64.0658 13.9624 64.0658 13.9624 15.9267 51.9187C-32.2124 89.8751 15.8151 52.0032 15.7464 52.018C15.6776 52.0328 15.606 52.0272 15.5404 52.0019C14.7059 11.2189 14.6834 10.7189 14.6834 1.79968C14.6834 -0.512771 17.0614 0.063848 17.0614 0.063848L64.0658 13.9624Z" fill="#256A45"/>
</g>
<defs>
<linearGradient id="paint0_linear_497_889" x1="18.5002" y1="53" x2="51.5002" y2="87" gradientUnits="userSpaceOnUse">
<stop offset="0.317708" stop-color="#F40000"/>
<stop offset="1" stop-color="#A30000"/>
</linearGradient>
<linearGradient id="paint1_linear_497_889" x1="19" y1="23.5" x2="3.5" y2="61" gradientUnits="userSpaceOnUse">
<stop offset="0.421875" stop-color="#EAE203"/>
<stop offset="1" stop-color="#998812"/>
</linearGradient>
<clipPath id="clip0_497_889">
<rect width="67" height="82" fill="white" transform="translate(0.5)"/>
</clipPath>
</defs>
</svg>
