<svg width="101" height="46" viewBox="0 0 101 46" fill="none" xmlns="http://www.w3.org/2000/svg">
<path d="M11.56 9.28C15.2133 9.28 18.0533 10.04 20.08 11.56C22.1067 13.08 23.12 15.3333 23.12 18.32C23.12 21.44 22.12 23.8 20.12 25.4C18.1467 26.9733 15.4933 27.76 12.16 27.76H9.16V37H2.6V9.28H11.56ZM11.6 23.04C13.1467 23.04 14.32 22.68 15.12 21.96C15.9467 21.2133 16.36 20 16.36 18.32C16.36 15.4133 14.7333 13.96 11.48 13.96H9.16V23.04H11.6ZM31.1137 37.68C29.2737 37.68 27.8337 37.16 26.7937 36.12C25.7804 35.0533 25.2737 33.5467 25.2737 31.6V7.32L31.5937 6.64V31.36C31.5937 32.24 31.9537 32.68 32.6738 32.68C33.0471 32.68 33.3938 32.6133 33.7137 32.48L34.9538 36.96C33.8071 37.44 32.5271 37.68 31.1137 37.68ZM53.4334 30.84C53.4334 31.64 53.5401 32.2267 53.7534 32.6C53.9934 32.9733 54.3668 33.2533 54.8734 33.44L53.5534 37.56C52.2468 37.4533 51.1801 37.1733 50.3534 36.72C49.5268 36.24 48.8868 35.4933 48.4334 34.48C47.0468 36.6133 44.9134 37.68 42.0334 37.68C39.9268 37.68 38.2468 37.0667 36.9934 35.84C35.7401 34.6133 35.1134 33.0133 35.1134 31.04C35.1134 28.72 35.9668 26.9467 37.6734 25.72C39.3801 24.4933 41.8468 23.88 45.0734 23.88H47.2334V22.96C47.2334 21.7067 46.9668 20.8533 46.4334 20.4C45.9001 19.92 44.9668 19.68 43.6334 19.68C42.9401 19.68 42.1001 19.7867 41.1134 20C40.1268 20.1867 39.1134 20.4533 38.0734 20.8L36.6334 16.64C37.9668 16.1333 39.3268 15.7467 40.7134 15.48C42.1268 15.2133 43.4334 15.08 44.6334 15.08C47.6734 15.08 49.9001 15.7067 51.3134 16.96C52.7268 18.2133 53.4334 20.0933 53.4334 22.6V30.84ZM43.8734 33.16C45.3134 33.16 46.4334 32.48 47.2334 31.12V27.36H45.6734C44.2334 27.36 43.1534 27.6133 42.4334 28.12C41.7401 28.6267 41.3934 29.4133 41.3934 30.48C41.3934 31.3333 41.6068 32 42.0334 32.48C42.4868 32.9333 43.1001 33.16 43.8734 33.16ZM71.1875 36C70.4142 36.5333 69.5075 36.9467 68.4675 37.24C67.4542 37.5333 66.4408 37.68 65.4275 37.68C60.7875 37.6533 58.4675 35.0933 58.4675 30V20.16H55.4675V15.76H58.4675V11.16L64.7875 10.44V15.76H69.6675L68.9875 20.16H64.7875V29.92C64.7875 30.9067 64.9475 31.6133 65.2675 32.04C65.5875 32.4667 66.0942 32.68 66.7875 32.68C67.5075 32.68 68.2675 32.4533 69.0675 32L71.1875 36ZM84.2172 15.16C84.9905 15.16 85.6972 15.2533 86.3372 15.44L85.3372 21.56C84.5372 21.3733 83.8972 21.28 83.4172 21.28C82.1639 21.28 81.2039 21.72 80.5372 22.6C79.8972 23.4533 79.3905 24.7467 79.0172 26.48V37H72.6972V15.76H78.2172L78.7372 19.88C79.2172 18.4133 79.9372 17.2667 80.8972 16.44C81.8839 15.5867 82.9905 15.16 84.2172 15.16ZM87.2688 30.44C88.2554 30.44 89.0954 30.8 89.7888 31.52C90.5088 32.2133 90.8688 33.0533 90.8688 34.04C90.8688 35.0533 90.5088 35.92 89.7888 36.64C89.0954 37.3333 88.2554 37.68 87.2688 37.68C86.2554 37.68 85.3888 37.3333 84.6688 36.64C83.9754 35.92 83.6288 35.0533 83.6288 34.04C83.6288 33.0533 83.9754 32.2133 84.6688 31.52C85.3888 30.8 86.2554 30.44 87.2688 30.44Z" fill="#EB2188"/>
</svg>
